<svg width="173" height="173" viewBox="0 0 173 173" fill="none" xmlns="http://www.w3.org/2000/svg">
<path d="M173 86.5C173 134.273 134.273 173 86.5 173C38.7274 173 0 134.273 0 86.5C0 38.7274 38.7274 0 86.5 0C134.273 0 173 38.7274 173 86.5ZM9.34273 86.5C9.34273 129.113 43.8872 163.657 86.5 163.657C129.113 163.657 163.657 129.113 163.657 86.5C163.657 43.8872 129.113 9.34273 86.5 9.34273C43.8872 9.34273 9.34273 43.8872 9.34273 86.5Z" fill="#00A91B"/>
<path d="M128 57.9375L74.375 111.562L50 87.1875" stroke="#00A91B" stroke-width="20" stroke-linecap="round" stroke-linejoin="round"/>
</svg>
